<?xml version="1.0" encoding="utf-8"?>
<!-- Generator: Adobe Illustrator 24.0.1, SVG Export Plug-In . SVG Version: 6.00 Build 0)  -->
<svg version="1.1" id="Layer_1" xmlns="http://www.w3.org/2000/svg" xmlns:xlink="http://www.w3.org/1999/xlink" x="0px" y="0px"
	 viewBox="0 0 426.3 156.8" style="enable-background:new 0 0 426.3 156.8;" xml:space="preserve">
<style type="text/css">
	.st0{fill:#FFFFFF;}
	.st1{fill:none;stroke:#FFFFFF;stroke-width:8;stroke-miterlimit:10;}
	.st2{fill:#2EA5DA;}
	.st3{fill:#05B152;}
	.st4{fill:#FCB240;}
	.st5{fill:#DF2927;}
	.st6{fill:#F57F32;}
	.st7{fill:#8881B7;}
	.st8{fill:none;}
	.st9{font-family:'GilbertBold';}
	.st10{font-size:55px;}
	.st11{letter-spacing:-1;}
</style>
<g>
	<g>
		<g>
			<path class="st0" d="M195.7,74.2c-0.5,11.6-10.1,20.3-22.3,20.3c-15.4,0-20.6-10.8-21.9-14.1l12.1-4.6c1,2.6,3.5,5.7,9.8,5.7
				c5.2,0,9.2-3.3,9.4-7.9c0.1-1.7,0.3-6.7-11.5-10.7c-17.3-6-20.6-16.1-20.3-23.6c0.5-11.6,10.1-20.3,22.3-20.3
				c15.4,0,20.6,10.8,21.9,14.1l-12.1,4.6c-1-2.6-3.5-5.7-9.8-5.7c-5.2,0-9.2,3.3-9.4,7.9c-0.1,1.7-0.3,6.7,11.5,10.7
				C192.7,56.5,196,66.7,195.7,74.2z"/>
			<path class="st0" d="M246.3,48.2v46.2h-12.7V92c-9.7,4.9-21.5,2.4-28.4-6.1c-6.8-8.5-6.8-20.6,0-29c6.8-8.5,18.7-11,28.4-6.1
				v-2.5L246.3,48.2z M223.2,81.7c5.7,0,10.4-4.7,10.4-10.4c0-5.7-4.7-10.4-10.4-10.4s-10.4,4.7-10.4,10.4
				C212.8,77.1,217.4,81.7,223.2,81.7L223.2,81.7z"/>
			<path class="st0" d="M292.3,68.5v25.9h-12.7V68.5c0-4.2-3.4-7.6-7.6-7.6s-7.6,3.4-7.6,7.6v25.9h-12.7V48.2h12.7v1.5
				c2.4-1,5-1.5,7.6-1.5C283.2,48.2,292.3,57.3,292.3,68.5z"/>
			<path class="st0" d="M349.1,48.2v12.7H343v10.4c0,6.1-2.4,12-6.8,16.3c-4.3,4.3-10.2,6.8-16.3,6.8h-8.4c-1.1,0-2,0.9-2,2
				s0.9,2,2,2h16.8c8.1,0,14.7,6.6,14.7,14.7s-6.6,14.7-14.7,14.7h-14.8v-12.7h14.8c1.1,0,2-0.9,2-2s-0.9-2-2-2h-16.8
				c-6.1,0-11.5-3.7-13.7-9.4c-2.2-5.7-0.6-12.1,3.9-16.2c-7-9.1-6.4-21.9,1.6-30.2c7.9-8.3,20.8-9.5,30.1-2.8
				c0.2-0.2,0.4-0.5,0.6-0.7c2.3-2.3,5.5-3.6,8.8-3.6H349.1z M319.9,60.9c-5.7,0-10.4,4.7-10.4,10.4c0,4.2,2.5,8,6.4,9.6
				s8.4,0.7,11.3-2.3c3-3,3.9-7.5,2.3-11.3C327.9,63.5,324.1,60.9,319.9,60.9L319.9,60.9z"/>
			<path class="st0" d="M397.6,71.3c0,9.3-5.6,17.8-14.3,21.3s-18.6,1.6-25.2-5s-8.6-16.5-5-25.2s12-14.3,21.3-14.3
				C387.2,48.2,397.6,58.6,397.6,71.3z M374.5,81.7c5.7,0,10.4-4.7,10.4-10.4c0-4.2-2.5-8-6.4-9.6s-8.4-0.7-11.3,2.3
				c-3,3-3.9,7.5-2.3,11.3C366.5,79.2,370.3,81.7,374.5,81.7L374.5,81.7z"/>
		</g>
		<path class="st1" d="M137.6,49l0.4,57.8c0,4.1-2.1,7.8-5.6,9.9L82.6,146c-3.5,2.1-7.8,2.1-11.3,0.1L21,117.5
			c-3.5-2-5.7-5.7-5.7-9.8L14.8,50c0-4.1,2.1-7.8,5.6-9.9l49.9-29.3c3.5-2.1,7.8-2.1,11.3-0.1l50.3,28.6
			C135.4,41.3,137.6,45,137.6,49z"/>
	</g>
	<g>
		<rect x="30.1" y="42.1" class="st2" width="11.2" height="72.6"/>
		<path class="st3" d="M53.2,106.8h-2.7V62.2c0-4.7,3.8-8.5,8.5-8.5h2.7v44.6C61.7,103,57.9,106.8,53.2,106.8z"/>
		<rect x="70.8" y="42.1" class="st4" width="11.2" height="72.6"/>
		<path class="st5" d="M96.9,98.4h-5.8V59.1c0-3,2.4-5.4,5.4-5.4h5.8V93C102.4,95.9,99.9,98.4,96.9,98.4z"/>
		<rect x="70.8" y="72.9" class="st6" width="51.9" height="11.2"/>
		<rect x="111.5" y="42.1" class="st7" width="11.2" height="72.6"/>
		<rect x="102.4" y="53.7" class="st5" width="20.3" height="11.2"/>
	</g>
</g>
<rect x="351.4" y="89.3" class="st8" width="73.7" height="38.5"/>
<text transform="matrix(1 0 0 1 351.4031 127.822)" class="st0 st9 st10 st11">.gg</text>
</svg>
