<svg id="Layer_1" data-name="Layer 1" xmlns="http://www.w3.org/2000/svg" viewBox="0 0 613 828.27"><defs><style>.cls-1,.cls-3,.cls-4{fill:none;stroke:#fff;stroke-miterlimit:10;}.cls-1{stroke-width:5px;}.cls-2{fill:#fff;}.cls-4{stroke-width:10px;}</style></defs><title>Lander</title><polyline class="cls-1" points="437.33 356.5 510.71 283.12 510.71 118.73 394.48 2.5 230.1 2.5 113.86 118.73 113.86 283.12 187.25 356.5"/><path class="cls-2" d="M1448,502v76H993V502h455m5-5H988v86h465V497Z" transform="translate(-908 -140.5)"/><polyline class="cls-1" points="414.54 442.5 476.63 604.5 148 604.5 210.08 442.5"/><line class="cls-1" x1="135.5" y1="442" x2="26.5" y2="695"/><line class="cls-1" y1="695" x2="54" y2="695"/><line class="cls-1" x1="477.5" y1="442" x2="586.5" y2="695"/><line class="cls-1" x1="613" y1="695" x2="559" y2="695"/><path class="cls-3" d="M1095.25,497" transform="translate(-908 -140.5)"/><polyline class="cls-4" points="148.5 604 312.5 820 476.5 604"/></svg>