<svg id="Layer_1" data-name="Layer 1" xmlns="http://www.w3.org/2000/svg" viewBox="0 0 1972 658.5"><defs><style>.cls-1{stroke:#fff;stroke-miterlimit:10;stroke-width:5px;}.cls-2{fill:#fff;}</style></defs><title>mountain</title><polygon class="cls-1" points="1969.5 656 1969.5 308.5 1881.5 422.5 1787.5 481.5 1709.5 499.5 1626.5 449.5 1508.5 449.5 1353.5 548.5 1068.5 548.5 969.5 388.5 921.5 235.5 803.5 2.5 703.5 2.5 660.5 120.5 593.5 120.5 566.5 225.5 466.5 323.5 391.5 395.5 206.5 504.5 2.5 548.5 2.5 655.5 1969.5 656"/><path class="cls-2" d="M702.24,477.84h9.21a5.16,5.16,0,0,1,4,1.4c1.4,1.3,1.55,2.5,1.55,4.25v10.7a5.29,5.29,0,0,1-1.2,3.9c-1.25,1.5-2.55,1.7-4.35,1.7H700.34a7.27,7.27,0,0,1-3.3-.9l-1.9-.85c-1.35-.6-2.85-1.05-2.85-2.8a2.52,2.52,0,0,1,2.4-2.5,3.61,3.61,0,0,1,1.6.4l1.5.65a8.52,8.52,0,0,0,2.65,1H712v-12H697.24V460.89H714.5a2.5,2.5,0,0,1,0,5H702.24Z" transform="translate(33 -438)"/><path class="cls-2" d="M737.79,480.34l-8.9-15.3a3.23,3.23,0,0,1-.6-1.8,2.47,2.47,0,0,1,2.45-2.35c1.65,0,2.2,1.25,2.9,2.45l7,12,7-12c.7-1.2,1.25-2.45,2.9-2.45a2.48,2.48,0,0,1,2.46,2.35,3.23,3.23,0,0,1-.6,1.8l-8.91,15.3,8.91,15.3a3.23,3.23,0,0,1,.6,1.8,2.48,2.48,0,0,1-2.46,2.35c-1.65,0-2.2-1.25-2.9-2.45l-7-11.95-7,11.95c-.7,1.2-1.25,2.45-2.9,2.45a2.47,2.47,0,0,1-2.45-2.35,3.23,3.23,0,0,1,.6-1.8Z" transform="translate(33 -438)"/><path class="cls-2" d="M1513.29,937.79h17.21a2.5,2.5,0,0,1,0,5h-22.21v-16.3c0-3.75,1.9-5.65,5.65-5.65H1528v-12h-17.21a2.5,2.5,0,0,1,0-5h16.6a5.28,5.28,0,0,1,4.06,1.4c1.4,1.3,1.55,2.65,1.55,4.45V920c0,1.8-.15,3.15-1.55,4.45a5.28,5.28,0,0,1-4.06,1.4h-14.1Z" transform="translate(33 -438)"/><path class="cls-2" d="M1553.79,923.34l-8.9-15.3a3.23,3.23,0,0,1-.6-1.8,2.47,2.47,0,0,1,2.45-2.35c1.65,0,2.2,1.25,2.9,2.45l7,11.95,7-11.95c.7-1.2,1.25-2.45,2.9-2.45a2.48,2.48,0,0,1,2.46,2.35,3.17,3.17,0,0,1-.61,1.8l-8.9,15.3,8.9,15.3a3.17,3.17,0,0,1,.61,1.8,2.48,2.48,0,0,1-2.46,2.35c-1.65,0-2.2-1.25-2.9-2.45l-7-12-7,12c-.7,1.2-1.25,2.45-2.9,2.45a2.47,2.47,0,0,1-2.45-2.35,3.23,3.23,0,0,1,.6-1.8Z" transform="translate(33 -438)"/></svg>