<?xml version="1.0" encoding="utf-8"?>
<!-- Generator: Adobe Illustrator 24.0.1, SVG Export Plug-In . SVG Version: 6.00 Build 0)  -->
<svg version="1.1" id="Layer_1" xmlns="http://www.w3.org/2000/svg" xmlns:xlink="http://www.w3.org/1999/xlink" x="0px" y="0px"
	 viewBox="0 0 155 154.7" style="enable-background:new 0 0 155 154.7;" xml:space="preserve">
<style type="text/css">
	.st0{fill:none;stroke:#FFFFFF;stroke-width:5;stroke-miterlimit:10;}
	.st1{fill:#2EA5DA;}
	.st2{fill:#05B152;}
	.st3{fill:#8881B7;}
	.st4{fill:#DF2927;}
	.st5{fill:#FCB240;}
	.st6{fill:#F57F32;}
</style>
<path class="st0" d="M138.9,47.8l0.4,57.8c0,4.1-2.1,7.8-5.6,9.9l-49.9,29.3c-3.5,2.1-7.8,2.1-11.3,0.1l-50.3-28.6
	c-3.5-2-5.7-5.7-5.7-9.8L16,48.7c0-4.1,2.1-7.8,5.6-9.9L71.5,9.6c3.5-2.1,7.8-2.1,11.3-0.1L133.1,38C136.7,40,138.8,43.8,138.9,47.8
	z"/>
<g>
	<path class="st1" d="M29,99.4l19.4,19.3l3.3,2.7c2.6,1.2,5.8,0.8,8-1.4l3.7-3.7c1.3-1.3,2.1-3.1,2.1-5c0-1.9-0.7-3.6-2.1-5
		l-4.6-4.6c-0.8-0.8-2.2-0.8-3,0c-0.8,0.8-0.8,2.2,0,3l4.6,4.6c0.5,0.5,0.8,1.2,0.8,2c0,0.8-0.3,1.5-0.8,2l-3.7,3.7
		c-0.9,0.9-2.4,1.1-3.4,0.4L30,94.4c-0.5-0.5-0.7-1.2-0.7-1.9c0-0.8,0.3-1.5,0.8-2l3.7-3.7c1.1-1.1,2.9-1.1,4,0l4.6,4.6
		c0.8,0.8,2.2,0.8,3,0s0.8-2.2,0-3l-4.6-4.6c-1.4-1.4-3.2-2-5-2c-1.8,0-3.6,0.7-5,2l-3.7,3.7c-1.3,1.3-2.1,3.1-2.1,5
		c0,1.3,0.4,2.6,1.1,3.7L29,99.4z"/>
	<path class="st2" d="M87.5,96.9c0.5-0.3,0.9-0.7,1.4-1.1l1.9-1.9c0.8-0.8,0.8-2.2,0-3c-0.8-0.8-2.2-0.8-3,0l-1.9,1.9
		c-1.8,1.8-5,1.6-8.1,1.3c-3.4-0.2-6.9-0.5-9.1,1.8l-7,7l2.9,3.1l7.1-7.1c0,0,0,0,0,0c0.9-0.9,3.4-0.8,5.8-0.6
		c1.7,0.1,3.7,0.3,5.5,0"/>
	<path class="st3" d="M83.6,99.2l7.8,7.8c0.3-0.4,2.3-2.6,2.8-3.1L88,97.7"/>
	<path class="st4" d="M129.6,87.4l-3.7-3.7c-1.3-1.3-3.1-2-5-2c-1.2,0-2.4,0.3-3.4,0.9l-3.2,2.8L95,104.6l-2.8,3.2
		c-0.6,1-0.9,2.2-0.9,3.4c0,1.9,0.7,3.6,2.1,5l3.7,3.7c1.3,1.3,3.1,2,5,2c1.9,0,3.6-0.7,5-2l22.5-22.5c1.3-1.3,2.1-3.1,2.1-5
		C131.6,90.5,130.9,88.7,129.6,87.4z M126.6,94.4L104,116.9c-0.5,0.5-1.2,0.8-2,0.8c-0.8,0-1.5-0.3-2-0.8l-3.7-3.7
		c-0.5-0.5-0.8-1.2-0.8-2c0-0.8,0.3-1.5,0.8-2l22.5-22.5c0.5-0.5,1.2-0.8,2-0.8c0.8,0,1.5,0.3,2,0.8l3.7,3.7c0.5,0.5,0.8,1.2,0.8,2
		C127.4,93.1,127.1,93.8,126.6,94.4z"/>
	<path class="st2" d="M45.1,76.2l-5.3,5.3c0.2,0.2,2.5,2.3,3.1,2.9l5.3-5.3C47.6,78.7,45.3,76.5,45.1,76.2z"/>
	<path class="st3" d="M77.4,43.9c-0.8-0.4-2-1.2-3.3-2.4c-1.7-1.7-3-3.6-3.1-4.8c0,0,0,0,0,0c0,0,0,0,0,0c0-0.1,0-0.2,0-0.2
		c0.3-0.1,1-0.1,2.7,0.2l7.8,1.4c0.8-0.6,4-2.9,4.6-3.3l-11.9-2.3c-1.8-0.3-4.4-0.6-6.1,0.9c-0.1,0.1-0.2,0.2-0.3,0.3
		c-2.6-0.9-5.6-0.4-7.7,1.7c-1.4,1.4-2.1,3.2-2.1,5.2c0,0.7,0.1,1.4,0.3,2c-1.4,0.3-2.6,1-3.7,2c-1.4,1.4-2.1,3.2-2.1,5.2
		c0,0.7,0.1,1.4,0.3,2.1c-1.4,0.3-2.6,1-3.7,2C47.7,55.2,47,57.1,47,59c0,1.5,0.4,2.9,1.3,4.1c-1,0.4-2,0.9-2.8,1.7
		c-2.8,2.8-2.8,7.5,0,10.3l3.5,3.2c1.1,0.7,2.4,1.1,3.8,1.1c2,0,3.8-0.8,5.2-2.1c1.4-1.4,2.1-3.2,2.1-5.2c0,0,0,0,0-0.1
		c0,0,0,0,0.1,0c2,0,3.8-0.8,5.2-2.1c1.4-1.4,2.1-3.2,2.1-5.2c0,0,0,0,0-0.1c0,0,0,0,0.1,0c2,0,3.8-0.8,5.2-2.1
		c1.4-1.4,2.1-3.3,2.1-5.2c0,0,0,0,0.1,0c2,0,3.8-0.8,5.2-2.1c1.4-1.4,2.1-3.2,2.1-5.2c0-1.4-0.8-3.6-1.1-3.8L77.4,43.9z M54.9,74.3
		c-0.6,0.6-1.4,0.9-2.2,0.9c-0.8,0-1.6-0.3-2.2-0.9l-0.3-0.3c0,0,0,0,0,0c0,0,0,0,0,0l-1.8-1.8c-1.2-1.2-1.2-3.2,0-4.4
		c0.6-0.6,1.4-0.9,2.2-0.9c0.8,0,1.6,0.3,2.2,0.9l2.1,2.1c0.6,0.6,0.9,1.4,0.9,2.2C55.8,73,55.5,73.7,54.9,74.3z M62.2,67
		c-0.6,0.6-1.4,0.9-2.2,0.9c-0.8,0-1.6-0.3-2.2-0.9l-2.1-2.1c0,0,0,0,0,0l-3.7-3.7c-0.6-0.6-0.9-1.4-0.9-2.2c0-0.8,0.3-1.6,0.9-2.2
		v0c0.6-0.6,1.4-0.9,2.2-0.9c0.8,0,1.6,0.3,2.2,0.9l5.8,5.8c0.6,0.6,0.9,1.4,0.9,2.2C63.1,65.6,62.8,66.4,62.2,67z M69.6,59.6
		c-0.6,0.6-1.4,0.9-2.2,0.9s-1.6-0.3-2.2-0.9l0,0l-5.8-5.8c0,0,0,0,0,0L57.6,52c-0.6-0.6-0.9-1.4-0.9-2.2c0-0.8,0.3-1.6,0.9-2.2
		c0.6-0.6,1.4-0.9,2.2-0.9c0.8,0,1.6,0.3,2.2,0.9l7.6,7.6C70.8,56.5,70.8,58.4,69.6,59.6z M76.9,52.3c-0.6,0.6-1.4,0.9-2.2,0.9
		c-0.8,0-1.6-0.3-2.2-0.9l0,0l0,0l-9.5-9.5c-0.6-0.6-0.9-1.4-0.9-2.2c0-0.8,0.3-1.6,0.9-2.2c1.1-1.1,2.7-1.2,3.9-0.4
		c0.7,2.9,3.1,5.5,4.2,6.5c0.8,0.8,3.4,3.1,6.1,3.8c0.4,0.5,0.6,1.1,0.6,1.8C77.8,51,77.5,51.7,76.9,52.3z"/>
	<path class="st2" d="M107.5,78.5c0.5-0.5,3-3,3-3l0.3-0.3c2.8-2.8,2.8-7.5,0-10.3c-1-1-2.3-1.7-3.7-2c0.2-0.7,0.3-1.3,0.3-2
		c0-2-0.8-3.8-2.1-5.2c-1-1-2.3-1.7-3.7-2c0.2-0.7,0.3-1.3,0.3-2c0-2-0.8-3.8-2.1-5.2c-1-1-2.3-1.7-3.7-2c0.7-2.5,0.1-5.3-1.8-7.2
		c-1.6-1.6-3.8-2.3-5.9-2.1l0,0c-1.4,0.1-4.9,2.6-5.6,3.3l-4.5,4.8c0.5,0.3,2.7,1.7,3.4,2.3l5.3-5.3c0.4-0.4,1-0.7,1.6-0.8
		c0.1,0,0.1,0,0.2,0c0.9-0.1,1.9,0.2,2.6,0.9c1.2,1.2,1.2,3.2,0,4.4l-1.8,1.8c0,0,0,0,0,0l-2.1,2.1c-0.8,0.8-0.8,2.2,0,3
		c0.8,0.8,2.2,0.8,3,0l1.8-1.8l0,0l0.3-0.3c1.2-1.2,3.2-1.2,4.4,0c0.6,0.6,0.9,1.4,0.9,2.2c0,0.8-0.3,1.6-0.9,2.2L95,55.7
		c0,0,0,0,0,0l-2.1,2.1c-0.8,0.8-0.8,2.2,0,3c0.8,0.8,2.2,0.8,3,0l2.1-2.1c0.6-0.6,1.4-0.9,2.2-0.9c0.8,0,1.6,0.3,2.2,0.9
		c0.6,0.6,0.9,1.4,0.9,2.2c0,0.8-0.3,1.6-0.9,2.2l-3.7,3.7c-0.8,0.8-0.8,2.2,0,3c0.4,0.4,0.9,0.6,1.5,0.6c0.5,0,1.1-0.2,1.5-0.6
		l1.8-1.8c0,0,0,0,0,0c0.6-0.6,1.4-0.9,2.2-0.9c0.8,0,1.6,0.3,2.2,0.9c1.2,1.2,1.2,3.2,0,4.4L106,74c0,0,0,0,0,0c0,0,0,0,0,0
		l-2.9,2.9c-0.8,0.8-0.8,2.2,0,3c0.4,0.4,0.9,0.6,1.5,0.6c0.5,0,1.1-0.2,1.5-0.6L107.5,78.5L107.5,78.5z"/>
	<path class="st3" d="M111.3,76.3c-0.5,0.5-2.5,2.4-3,2.9l5.3,5.3c0.7-0.6,2.7-2.4,3.2-2.8L111.3,76.3z"/>
	<path class="st5" d="M49.6,93.1l4.8,4.8c0.9,0.9,0.9,2.2,0,3.1h0c-0.9,0.9-2.2,0.9-3.1,0l-4.8-4.8c-0.9-0.9-0.9-2.2,0-3.1h0
		C47.3,92.3,48.7,92.3,49.6,93.1z"/>
	<path class="st6" d="M120.6,95.7l-15.2,15.2c-0.9,0.9-2.2,0.9-3.1,0l0,0c-0.9-0.9-0.9-2.2,0-3.1l15.2-15.2c0.9-0.9,2.2-0.9,3.1,0
		l0,0C121.5,93.5,121.5,94.9,120.6,95.7z"/>
</g>
</svg>
