<?xml version="1.0" encoding="utf-8"?>
<!-- Generator: Adobe Illustrator 24.0.1, SVG Export Plug-In . SVG Version: 6.00 Build 0)  -->
<svg version="1.1" id="Layer_1" xmlns="http://www.w3.org/2000/svg" xmlns:xlink="http://www.w3.org/1999/xlink" x="0px" y="0px"
	 viewBox="0 0 155 154.7" style="enable-background:new 0 0 155 154.7;" xml:space="preserve">
<style type="text/css">
	.st0{fill:#2EA5DA;}
	.st1{fill:#05B152;}
	.st2{fill:#FCB240;}
	.st3{fill:#DF2927;}
	.st4{fill:#F57F32;}
	.st5{fill:#8881B7;}
	.st6{fill:none;stroke:#FFFFFF;stroke-width:5;stroke-miterlimit:10;}
</style>
<g>
	<rect x="31.4" y="40.9" class="st0" width="11.2" height="72.6"/>
	<path class="st1" d="M54.4,105.6h-2.7V61c0-4.7,3.8-8.5,8.5-8.5h2.7v44.6C62.9,101.8,59.1,105.6,54.4,105.6z"/>
	<rect x="72" y="40.9" class="st2" width="11.2" height="72.6"/>
	<path class="st3" d="M98.2,97.1h-5.8V57.9c0-3,2.4-5.4,5.4-5.4h5.8v39.2C103.6,94.7,101.2,97.1,98.2,97.1z"/>
	<rect x="72" y="71.6" class="st4" width="51.9" height="11.2"/>
	<rect x="112.7" y="40.9" class="st5" width="11.2" height="72.6"/>
	<rect x="103.6" y="52.5" class="st3" width="20.3" height="11.2"/>
</g>
<path class="st6" d="M138.9,47.8l0.4,57.8c0,4.1-2.1,7.8-5.6,9.9l-49.9,29.3c-3.5,2.1-7.8,2.1-11.3,0.1l-50.3-28.6
	c-3.5-2-5.7-5.7-5.7-9.8L16,48.7c0-4.1,2.1-7.8,5.6-9.9L71.5,9.6c3.5-2.1,7.8-2.1,11.3-0.1L133.1,38C136.7,40,138.8,43.8,138.9,47.8
	z"/>
</svg>
